<?xml version="1.0" encoding="utf-8"?>
<!-- Generator: Adobe Illustrator 15.1.0, SVG Export Plug-In . SVG Version: 6.00 Build 0)  -->
<!DOCTYPE svg PUBLIC "-//W3C//DTD SVG 1.1//EN" "http://www.w3.org/Graphics/SVG/1.1/DTD/svg11.dtd" [
	<!ENTITY ns_extend "http://ns.adobe.com/Extensibility/1.0/">
	<!ENTITY ns_ai "http://ns.adobe.com/AdobeIllustrator/10.0/">
	<!ENTITY ns_graphs "http://ns.adobe.com/Graphs/1.0/">
	<!ENTITY ns_vars "http://ns.adobe.com/Variables/1.0/">
	<!ENTITY ns_imrep "http://ns.adobe.com/ImageReplacement/1.0/">
	<!ENTITY ns_sfw "http://ns.adobe.com/SaveForWeb/1.0/">
	<!ENTITY ns_custom "http://ns.adobe.com/GenericCustomNamespace/1.0/">
	<!ENTITY ns_adobe_xpath "http://ns.adobe.com/XPath/1.0/">
]>
<svg version="1.1" id="Layer_1" xmlns:x="&ns_extend;" xmlns:i="&ns_ai;" xmlns:graph="&ns_graphs;"
	 xmlns="http://www.w3.org/2000/svg" xmlns:xlink="http://www.w3.org/1999/xlink" x="0px" y="0px" width="422.334px"
	 height="112.604px" viewBox="0 0 422.334 112.604" enable-background="new 0 0 422.334 112.604" xml:space="preserve">
<metadata>
	<sfw  xmlns="&ns_sfw;">
		<slices></slices>
		<sliceSourceBounds  y="517.138" x="215.119" height="67.664" width="418.268" bottomLeftOrigin="true"></sliceSourceBounds>
	</sfw>
</metadata>
<path fill="#282828" d="M136.638,63.71c0-7.099,5.35-12.266,11.663-12.266c6.311,0,11.656,5.167,11.656,12.266
	c0,7.097-5.345,12.269-11.656,12.269c-6.313,0-11.663-5.172-11.663-12.181V63.71z M122.092,63.71c0,11.916,8.501,25.86,26.209,25.86
	c17.714,0,26.213-13.944,26.213-25.86c0-11.919-8.499-25.849-26.213-25.849c-17.708,0-26.209,13.93-26.209,25.761V63.71
	L122.092,63.71z M79.823,57.752c0.35-2.281,3.333-7.711,10.869-7.711c7.547,0,10.524,5.43,10.875,7.711H79.823z M115.862,68.791
	c1.141-8.932-0.705-16.732-6.831-23.304c-4.568-4.818-10.975-7.717-18.425-7.717c-14.809,0-25.515,12.535-25.515,26.114
	c0,14.456,11.84,25.779,25.777,25.779c5.006,0,9.824-1.49,13.859-4.397c4.117-2.805,7.534-7.009,9.903-12.449h-14.9
	c-1.756,2.544-4.21,4.564-8.862,4.564c-5.696,0-10.607-3.421-11.216-8.59L115.862,68.791L115.862,68.791z M16.084,23.227H1.786
	v64.838h15.876l-0.348-39.077l24.813,39.077h14.374V23.227h-15.87l0.35,39.516L16.084,23.227z"/>
<path fill="#EE2E2B" d="M360.4,88.065h16.561V37.77h12.719V23.227h-42.084V37.77H360.4V88.065z M308.225,88.065h16.578V63.36h18.146
	V48.816h-18.146V37.77h18.849V23.227h-35.427V88.065z M247.374,55.471c0-9.112,6.234-18.924,17.715-18.924
	c11.928,0,17.627,10.779,17.627,19.186c0,8.33-5.699,19.016-17.451,19.016c-11.136,0-17.892-9.291-17.892-19.188L247.374,55.471
	L247.374,55.471z M230.812,56.435c0,16.653,13.676,32.874,34.105,32.874c20.164,0,34.376-15.607,34.376-33.66
	C299.292,37.598,284.995,22,265.005,22c-17.89,0-34.193,13.142-34.193,34.351V56.435L230.812,56.435z M179.682,66.6
	c-0.43,12.707,6.41,22.708,23.413,22.708c17.19,0,22.63-10.439,22.63-20.775c0-7.535-3.069-13.148-15.178-18.577
	c-11.667-5.265-13.417-6.05-13.417-9.027c0-3.068,2.818-5.081,5.708-5.081c5.085,0,5.608,4.112,5.964,6.307h16.393
	C224.935,26.557,212.308,22,203.365,22c-10.875,0-22.713,6.925-22.713,19.982c0,12.178,11.318,16.732,15.869,18.571
	c10.003,4.208,12.719,5.258,12.719,8.676c0,2.979-2.366,6.223-6.313,6.223c-2.104,0-6.753-1.314-6.753-8.853H179.682z"/>
<path fill="#282828" d="M408.191,22.96c-6.552,0-11.865,5.31-11.865,11.865c0,6.552,5.313,11.862,11.865,11.862
	c6.553,0,11.862-5.311,11.862-11.862C420.055,28.27,414.744,22.96,408.191,22.96 M408.191,44.766c-5.488,0-9.939-4.451-9.939-9.94
	c0-5.491,4.451-9.941,9.939-9.941c5.489,0,9.94,4.45,9.94,9.941C418.133,40.314,413.682,44.766,408.191,44.766"/>
<path fill="#282828" d="M404.867,29.198c0.729-0.142,1.777-0.232,2.883-0.232c1.5,0,2.506,0.248,3.221,0.836
	c0.574,0.481,0.896,1.208,0.896,2.106c0,1.349-0.912,2.264-1.902,2.603v0.047c0.758,0.281,1.205,1.008,1.453,2.016
	c0.342,1.302,0.623,2.511,0.82,2.911h-1.949c-0.156-0.31-0.42-1.16-0.697-2.463c-0.311-1.362-0.791-1.797-1.875-1.827h-0.961v4.29
	h-1.889V29.198z M406.756,33.798h1.131c1.287,0,2.078-0.682,2.078-1.721c0-1.13-0.791-1.674-2.031-1.674
	c-0.604,0-0.991,0.048-1.178,0.093V33.798z"/>
</svg>
