<?xml version="1.0" encoding="UTF-8"?>
<svg width="100px" height="24px" viewBox="0 0 100 24" version="1.1" xmlns="http://www.w3.org/2000/svg" xmlns:xlink="http://www.w3.org/1999/xlink">
    <!-- Generator: Sketch 55 (78076) - https://sketchapp.com -->
    <title>tagtaste logo</title>
    <desc>Created with Sketch.</desc>
    <g id="Components" stroke="none" stroke-width="1" fill="none" fill-rule="evenodd">
        <g id="components/global/header" transform="translate(-126.000000, -20.000000)">
            <g id="tagtaste-logo" transform="translate(126.000000, 20.000000)">
                <path d="M62.5307377,8.50185792 C61.7451844,7.97726776 61.0589139,7.59081967 60.2663934,7.59081967 C59.7416713,7.57938328 59.2266935,7.73417657 58.7945697,8.03322404 C58.4758197,8.25530055 58.4026639,8.47737705 58.4026639,8.59978142 C58.3921563,8.6695343 58.4097015,8.74061949 58.4514344,8.79737705 C58.5167049,8.90327952 58.6102356,8.98869594 58.7214139,9.04393443 C59.0401639,9.26601093 59.6776639,9.4863388 60.5119877,9.63497268 L60.536373,9.65945355 L60.5607582,9.65945355 C61.3500335,9.79237146 62.1176483,10.0323829 62.8425205,10.3728962 C63.5563766,10.6688895 64.1638041,11.1756412 64.5843238,11.8260109 C64.8827338,12.3154532 65.0440076,12.8766878 65.051127,13.4504918 C65.051127,14.6570492 64.3892418,15.6660109 63.5061475,16.3077596 C62.5681413,16.9551567 61.4551804,17.2987145 60.3169057,17.2922404 C58.4009221,17.2677596 56.9308402,16.3812022 55.9502049,15.5925683 L55.1193648,14.8336612 L56.9203893,13.0255738 C57.1402548,13.2233574 57.3730114,13.4062037 57.6171107,13.5728962 C58.2546107,14.1149727 59.3589139,14.6815301 60.3151639,14.6570492 C60.9032041,14.6540861 61.4795993,14.4922075 61.9838115,14.1884153 C62.3321721,13.8928962 62.4244877,13.6463388 62.4244877,13.4504918 C62.4303571,13.3621565 62.4043924,13.2746473 62.351332,13.2039344 C62.3269467,13.1304918 62.2294057,13.029071 62.032582,12.9084153 C61.6842213,12.6618579 60.9526639,12.3838251 60.0695697,12.2194536 L60.0451844,12.2194536 C59.3112129,12.0916977 58.5949578,11.876859 57.9114754,11.5794536 C57.2275327,11.2677647 56.6419189,10.7736055 56.2184426,10.1508197 C55.9411915,9.68167423 55.7972201,9.14525847 55.8021516,8.59978142 C55.8021516,7.46666667 56.4396516,6.50142077 57.2495902,5.89114754 C58.139353,5.28621536 59.1918559,4.96837216 60.2663934,4.98010929 C61.9594262,4.98010929 63.1612705,5.79322404 63.9468238,6.33530055 L64.8630123,7.07497268 L63.1682377,8.88306011 L62.5307377,8.50185792 Z" id="Path" fill="#000000"></path>
                <path d="M51.4267418,6.07300546 C50.495121,5.38875721 49.3726353,5.01618686 48.2183402,5.00808743 C46.6583337,5.00708236 45.1697645,5.6644944 44.1163934,6.81967213 C43.0416367,7.97471083 42.453672,9.50239585 42.4756148,11.0828415 C42.4617209,12.661828 43.0485719,14.1866192 44.1163934,15.3460109 C45.1807838,16.4802407 46.6661382,17.1204031 48.2183402,17.1138798 C49.3710927,17.1115412 50.493771,16.7444138 51.4267418,16.0646995 L51.4267418,17.0806557 L53.9610656,17.0806557 L53.9610656,4.97661202 L51.4267418,4.97661202 L51.4267418,6.07300546 Z M50.4617828,13.5816393 C49.8721739,14.1883701 49.0626626,14.5290925 48.2183402,14.5259016 C47.3721968,14.5384033 46.5591688,14.1962008 45.9748975,13.5816393 C45.3665418,12.8958912 45.0392242,12.0044199 45.058709,11.0863388 C45.0301152,10.1667495 45.358637,9.27199854 45.9748975,8.59103825 C46.5403991,7.94426896 47.3612782,7.58084679 48.2183402,7.59781421 C49.0734161,7.59065011 49.8904102,7.95235234 50.4617828,8.59103825 C51.0854737,9.26906518 51.4226774,10.1636517 51.4023566,11.0863388 C51.4136059,12.0074412 51.0776297,12.898771 50.4617828,13.5816393 L50.4617828,13.5816393 Z" id="Shape" fill="#000000" fill-rule="nonzero"></path>
                <path d="M70.5203893,17.1086339 C69.0428619,17.103835 67.846276,15.9025567 67.8414959,14.419235 L67.8414959,7.66076503 L65.8018443,7.66076503 L65.8018443,4.99584699 L67.8414959,4.99584699 L67.8414959,0.152131148 L70.5203893,0.152131148 L70.5203893,4.99584699 L72.4781762,4.99584699 L72.4781762,7.66076503 L70.5203893,7.66076503 L70.5203893,14.419235 L71.8441598,14.419235 L71.8441598,17.0963934 L70.5203893,17.1086339 Z" id="Path" fill="#000000"></path>
                <path d="M40.0858607,17.1086339 C38.6083332,17.103835 37.4117473,15.9025567 37.4069672,14.419235 L37.4069672,7.66076503 L35.3586066,7.66076503 L35.3586066,4.99584699 L37.3982582,4.99584699 L37.3982582,0.152131148 L40.0771516,0.152131148 L40.0771516,4.99584699 L42.0349385,4.99584699 L42.0349385,7.66076503 L40.0858607,7.66076503 L40.0858607,14.419235 L41.4096311,14.419235 L41.4096311,17.0963934 L40.0858607,17.1086339 Z" id="Path" fill="#000000"></path>
                <path d="M83.5630123,11.9239344 L75.8903689,11.9239344 C76.0046246,12.5254607 76.2895029,13.0810572 76.7107582,13.5239344 C77.217623,14.1044809 78.182582,14.5416393 79.0273566,14.6133333 C79.8721311,14.6850273 80.9328893,14.4681967 81.5372951,14.008306 L83.3470287,15.5103825 C82.1643443,16.5997814 80.7343238,17.1103825 79.0273566,17.1103825 C75.7179303,17.0859016 73.1644467,14.3492896 73.1400615,11.0548634 C73.1644467,7.76043716 75.7214139,4.99934426 79.0273566,4.99934426 C82.1626025,4.99934426 84.6498975,7.3495082 84.8432377,10.6194536 L84.8432377,11.9274317 L83.5630123,11.9239344 Z M75.7684426,9.86579235 L82.5963115,9.86579235 C82.3542008,8.89704918 81.1244877,7.4684153 79.0256148,7.29704918 C76.9755123,7.39497268 75.9617828,8.87256831 75.7684426,9.86579235 Z" id="Shape" fill="#000000" fill-rule="nonzero"></path>
                <path d="M18.6773566,6.07300546 C17.7452541,5.38840875 16.6221044,5.01582031 15.4672131,5.00808743 C13.9072066,5.00708236 12.4186374,5.6644944 11.3652664,6.81967213 C10.2905097,7.97471083 9.70254498,9.50239585 9.7244877,11.0828415 C9.71059387,12.661828 10.2974448,14.1866192 11.3652664,15.3460109 C12.4287501,16.4821757 13.9142236,17.1242891 15.4672131,17.1191257 C16.6199656,17.1167871 17.7426439,16.7496597 18.6756148,16.0699454 L18.6756148,17.0859016 L21.2099385,17.0859016 L21.2099385,4.97661202 L18.6773566,4.97661202 L18.6773566,6.07300546 Z M17.7123975,13.5816393 C17.1227887,14.1883701 16.3132774,14.5290925 15.4689549,14.5259016 C14.6228115,14.5384033 13.8097835,14.1962008 13.2255123,13.5816393 C12.6171566,12.8958912 12.289839,12.0044199 12.3093238,11.0863388 C12.28073,10.1667495 12.6092518,9.27199854 13.2255123,8.59103825 C13.7906184,7.9447411 14.6107555,7.58136527 15.4672131,7.59781421 C16.322289,7.59065011 17.1392831,7.95235234 17.7106557,8.59103825 C18.3343466,9.26906518 18.6715503,10.1636517 18.6512295,11.0863388 C18.6624788,12.0074412 18.3265027,12.898771 17.7106557,13.5816393 L17.7123975,13.5816393 Z" id="Shape" fill="#FF1654" fill-rule="nonzero"></path>
                <polygon id="Path" fill="#FF1654" points="13.0635246 2.83978142 7.97920082 2.83978142 7.97920082 17.136612 5.32469262 17.136612 5.32469262 2.83978142 0.158504098 2.83978142 0.158504098 0.152131148 13.0635246 0.152131148"></polygon>
                <path d="M24.1065574,11.0653552 C24.1065574,11.2157377 24.1065574,11.3643716 24.1222336,11.5112568 L24.1222336,10.6369399 C24.1135246,10.775082 24.1065574,10.9184699 24.1065574,11.0653552 Z" id="Path" fill="#000000"></path>
                <polygon id="Path" fill="#000000" points="24.1065574 19.7595628 24.1222336 19.7595628 24.1222336 19.7053552"></polygon>
                <polygon id="Path" fill="#000000" points="34.5382172 23.164153 34.5382172 23.130929 34.416291 23.130929"></polygon>
                <path d="M33.9146516,18.6771585 C33.3288696,17.7112866 32.4997743,16.9175414 31.5109631,16.3759563 C31.9618694,16.0937992 32.368643,15.7461259 32.7180328,15.3442623 C33.6400201,14.4205999 34.2196015,13.2081465 34.3605533,11.9081967 C34.3825616,11.8052935 34.394232,11.7004334 34.3953893,11.5951913 L34.3953893,11.5584699 C34.4058402,11.395847 34.4145492,11.2314754 34.4145492,11.0636066 C34.4145492,10.8957377 34.4145492,10.7418579 34.3953893,10.5844809 L34.3710041,4.97486339 L31.7582992,4.97486339 C31.7582992,4.97486339 31.7582992,5.90338798 31.7461066,5.93661202 C30.8446526,5.29960422 29.7689746,4.9581664 28.6665984,4.95912568 C26.9944672,4.95912568 25.588832,5.65857923 24.4984631,6.80743169 C23.5295516,7.85622577 22.9453267,9.20502742 22.8420082,10.631694 L22.8420082,11.5060109 C22.9192072,12.9420913 23.5069488,14.3027347 24.4984631,15.340765 C24.854554,15.7172019 25.2552519,16.0484134 25.6915984,16.3269945 C24.3247095,17.0203158 23.296445,18.2406473 22.8420082,19.7088525 L22.8420082,19.7595628 L25.1917008,20.4590164 C25.3447881,19.9629681 25.6093853,19.5088763 25.9650615,19.1318033 C26.5764344,18.4096175 27.7521516,18.082623 28.7101434,18.082623 C29.6528149,18.074528 30.5535692,18.4731783 31.1835041,19.1772678 C31.8735007,19.9229872 32.248182,20.9085018 32.2285861,21.9261202 C32.2283176,22.1126532 32.2160997,22.2989758 32.1920082,22.4839344 L34.4302254,23.1344262 L34.5521516,23.1344262 C34.9788934,21.5466667 34.6932377,20.0236066 33.9146516,18.6771585 Z M31.0319672,13.5711475 C30.438817,14.1777288 29.6265051,14.5176771 28.7798156,14.5136612 C27.9299014,14.5262698 27.1131773,14.1828383 26.5259221,13.5659016 C25.9159391,12.8787005 25.5868618,11.9856459 25.6045082,11.0653552 C25.5764383,10.1417539 25.9068065,9.24331505 26.5259221,8.55956284 C27.0941559,7.91004568 27.9189043,7.54532376 28.7798156,7.56284153 C29.638744,7.55513574 30.4596024,7.9181374 31.033709,8.55956284 C31.6597823,9.24055705 31.9982208,10.1388675 31.9777664,11.0653552 C31.9881598,11.9904034 31.6503833,12.8853056 31.0319672,13.5711475 L31.0319672,13.5711475 Z" id="Shape" fill="#FF1654" fill-rule="nonzero"></path>
            </g>
        </g>
    </g>
</svg>